<mxfile host="65bd71144e">
    <diagram id="PfKkqmUgyac_fLeVSRue" name="Page-1">
        <mxGraphModel dx="1272" dy="634" grid="1" gridSize="10" guides="1" tooltips="1" connect="1" arrows="1" fold="1" page="1" pageScale="1" pageWidth="850" pageHeight="1100" math="0" shadow="0">
            <root>
                <mxCell id="0"/>
                <mxCell id="1" parent="0"/>
                <mxCell id="2" value="$RenderConfig" style="shape=swimlane;rotatable=0;align=center;verticalAlign=top;fontFamily=Lucida Console;startSize=30;fontSize=14;fontStyle=1;swimlaneFillColor=default;html=1;rounded=1;arcSize=15;absoluteArcSize=1;fillColor=#76608a;strokeColor=#432D57;fontColor=#ffffff;" parent="1" vertex="1" collapsed="1">
                    <mxGeometry width="210" height="70" as="geometry">
                        <mxRectangle width="840" height="650" as="alternateBounds"/>
                    </mxGeometry>
                </mxCell>
                <mxCell id="3" value="" style="fontFamily=Lucida Console;align=left;verticalAlign=top;fillColor=none;gradientColor=none;strokeColor=none;rounded=0;spacingLeft=4;resizable=0;movable=0;deletable=0;rotatable=0;autosize=1;" parent="2" vertex="1" connectable="0">
                    <mxGeometry y="30" width="50" height="40" as="geometry"/>
                </mxCell>
                <mxCell id="4" value="$CONFIG: AutoExpandedVars" style="shape=swimlane;rotatable=0;align=center;verticalAlign=top;fontFamily=Lucida Console;startSize=30;fontSize=14;fontStyle=1;swimlaneFillColor=default;html=1;rounded=1;arcSize=15;absoluteArcSize=1;fillColor=#76608a;fontColor=#ffffff;strokeColor=#432D57;" parent="2" vertex="1" collapsed="1">
                    <mxGeometry x="40" y="40" width="280" height="70" as="geometry">
                        <mxRectangle x="30" y="170" width="290" height="90" as="alternateBounds"/>
                    </mxGeometry>
                </mxCell>
                <mxCell id="5" value="// your variable declartions here like: &#10;// uint8_t count;" style="fontFamily=Lucida Console;align=left;verticalAlign=top;fillColor=none;gradientColor=none;strokeColor=none;rounded=0;spacingLeft=4;resizable=0;movable=0;deletable=0;rotatable=0;autosize=1;" parent="4" vertex="1" connectable="0">
                    <mxGeometry y="30" width="310" height="40" as="geometry"/>
                </mxCell>
                <mxCell id="6" value="&lt;b&gt;$NOTES&lt;/b&gt;&lt;br&gt;The &lt;b&gt;AutoExpandedVars &lt;/b&gt;render config section gives a convenient way to create a state machine variable and automatically add an expansion to it at the same time.&lt;br&gt;&lt;br&gt;It is combined with the C# &lt;b&gt;IRenderConfigC.&lt;/b&gt;&lt;b&gt;AutoExpandedVars&amp;nbsp;&lt;/b&gt;config.&lt;br&gt;&lt;br&gt;See&amp;nbsp;&lt;a href=&quot;https://github.com/StateSmith/StateSmith/issues/91&quot;&gt;https://github.com/StateSmith/StateSmith/issues/91&lt;/a&gt; for more info." style="shape=rectangle;rounded=1;arcSize=15;absoluteArcSize=1;align=left;verticalAlign=top;whiteSpace=wrap;html=1;spacingLeft=4;strokeWidth=1;strokeColor=default;fillColor=#fff2cc;fontColor=#000000;gradientColor=#ffd966;" parent="4" vertex="1">
                    <mxGeometry x="50" y="130" width="410" height="140" as="geometry"/>
                </mxCell>
                <mxCell id="7" value="&lt;b&gt;$NOTES&lt;/b&gt;&lt;br&gt;Diagram based RenderConfig support was added in StateSmith&amp;nbsp;version&amp;nbsp;0.7.7.&lt;br&gt;&lt;br&gt;See&amp;nbsp;&lt;a href=&quot;https://github.com/StateSmith/StateSmith/issues/23&quot;&gt;https://github.com/StateSmith/StateSmith/issues/23&lt;/a&gt;&amp;nbsp;for more info." style="shape=rectangle;rounded=1;arcSize=15;absoluteArcSize=1;align=left;verticalAlign=top;whiteSpace=wrap;html=1;spacingLeft=4;strokeWidth=1;strokeColor=default;fillColor=#fff2cc;fontColor=#000000;gradientColor=#ffd966;" parent="2" vertex="1">
                    <mxGeometry x="360" y="40" width="460" height="80" as="geometry"/>
                </mxCell>
                <mxCell id="8" value="&lt;b&gt;$NOTES&lt;/b&gt;&lt;br&gt;Generic expansions can only be created from the C# file within the &lt;b&gt;IRenderConfigC &lt;/b&gt;section for now." style="shape=rectangle;rounded=1;arcSize=15;absoluteArcSize=1;align=left;verticalAlign=top;whiteSpace=wrap;html=1;spacingLeft=4;strokeWidth=1;strokeColor=default;fillColor=#fff2cc;fontColor=#000000;gradientColor=#ffd966;" parent="2" vertex="1">
                    <mxGeometry x="360" y="160" width="460" height="70" as="geometry"/>
                </mxCell>
                <mxCell id="9" value="$CONFIG: HFileTop" style="shape=swimlane;rotatable=0;align=center;verticalAlign=top;fontFamily=Lucida Console;startSize=30;fontSize=14;fontStyle=1;swimlaneFillColor=default;html=1;rounded=1;arcSize=15;absoluteArcSize=1;fillColor=#76608a;fontColor=#ffffff;strokeColor=#432D57;" parent="2" vertex="1" collapsed="1">
                    <mxGeometry x="40" y="160" width="280" height="70" as="geometry">
                        <mxRectangle x="30" y="60" width="290" height="90" as="alternateBounds"/>
                    </mxGeometry>
                </mxCell>
                <mxCell id="10" value="// User RenderConfig HFileTop text..." style="fontFamily=Lucida Console;align=left;verticalAlign=top;fillColor=none;gradientColor=none;strokeColor=none;rounded=0;spacingLeft=4;resizable=0;movable=0;deletable=0;rotatable=0;autosize=1;" parent="9" vertex="1" connectable="0">
                    <mxGeometry y="30" width="290" height="30" as="geometry"/>
                </mxCell>
                <mxCell id="11" value="&lt;b&gt;$NOTES&lt;/b&gt;&lt;br&gt;Anything you type in the &lt;b&gt;HFileTop&amp;nbsp;&lt;/b&gt;vertex ends up at the top of the generated .h file. It is combined with the C# &lt;b&gt;IRenderConfigC.HFileTop&lt;/b&gt; config." style="shape=rectangle;rounded=1;arcSize=15;absoluteArcSize=1;align=left;verticalAlign=top;whiteSpace=wrap;html=1;spacingLeft=4;strokeWidth=1;strokeColor=default;fillColor=#fff2cc;fontColor=#000000;gradientColor=#ffd966;" parent="9" vertex="1">
                    <mxGeometry x="50" y="130" width="330" height="70" as="geometry"/>
                </mxCell>
                <mxCell id="12" value="$CONFIG: HFileIncludes" style="shape=swimlane;rotatable=0;align=center;verticalAlign=top;fontFamily=Lucida Console;startSize=30;fontSize=14;fontStyle=1;swimlaneFillColor=default;html=1;rounded=1;arcSize=15;absoluteArcSize=1;fillColor=#76608a;fontColor=#ffffff;strokeColor=#432D57;" parent="2" vertex="1" collapsed="1">
                    <mxGeometry x="40" y="240" width="280" height="70" as="geometry">
                        <mxRectangle x="30" y="60" width="290" height="90" as="alternateBounds"/>
                    </mxGeometry>
                </mxCell>
                <mxCell id="13" value="// User RenderConfig HFileIncludes text..." style="fontFamily=Lucida Console;align=left;verticalAlign=top;fillColor=none;gradientColor=none;strokeColor=none;rounded=0;spacingLeft=4;resizable=0;movable=0;deletable=0;rotatable=0;autosize=1;" parent="12" vertex="1" connectable="0">
                    <mxGeometry y="30" width="330" height="30" as="geometry"/>
                </mxCell>
                <mxCell id="14" value="&lt;b&gt;$NOTES&lt;/b&gt;&lt;br&gt;Anything you type in the &lt;b&gt;HFileIncludes &lt;/b&gt;vertex ends up in the generated .h file. It is combined with the C# &lt;b&gt;IRenderConfigC.HFileIncludes&lt;/b&gt; config." style="shape=rectangle;rounded=1;arcSize=15;absoluteArcSize=1;align=left;verticalAlign=top;whiteSpace=wrap;html=1;spacingLeft=4;strokeWidth=1;strokeColor=default;fillColor=#fff2cc;fontColor=#000000;gradientColor=#ffd966;" parent="12" vertex="1">
                    <mxGeometry x="40" y="120" width="330" height="70" as="geometry"/>
                </mxCell>
                <mxCell id="15" value="$CONFIG: CFileTop" style="shape=swimlane;rotatable=0;align=center;verticalAlign=top;fontFamily=Lucida Console;startSize=30;fontSize=14;fontStyle=1;swimlaneFillColor=default;html=1;rounded=1;arcSize=15;absoluteArcSize=1;fillColor=#76608a;fontColor=#ffffff;strokeColor=#432D57;" parent="2" vertex="1" collapsed="1">
                    <mxGeometry x="40" y="360" width="280" height="70" as="geometry">
                        <mxRectangle x="30" y="170" width="290" height="90" as="alternateBounds"/>
                    </mxGeometry>
                </mxCell>
                <mxCell id="16" value="// User RenderConfig CFileTop text..." style="fontFamily=Lucida Console;align=left;verticalAlign=top;fillColor=none;gradientColor=none;strokeColor=none;rounded=0;spacingLeft=4;resizable=0;movable=0;deletable=0;rotatable=0;autosize=1;" parent="15" vertex="1" connectable="0">
                    <mxGeometry y="30" width="290" height="30" as="geometry"/>
                </mxCell>
                <mxCell id="17" value="&lt;b&gt;$NOTES&lt;/b&gt;&lt;br&gt;Anything you type in the &lt;b&gt;CFileTop&amp;nbsp;&lt;/b&gt;vertex ends up at the top of the generated .c file. It is combined with the C# &lt;b&gt;IRenderConfigC.CFileTop&lt;/b&gt; config." style="shape=rectangle;rounded=1;arcSize=15;absoluteArcSize=1;align=left;verticalAlign=top;whiteSpace=wrap;html=1;spacingLeft=4;strokeWidth=1;strokeColor=default;fillColor=#fff2cc;fontColor=#000000;gradientColor=#ffd966;" parent="15" vertex="1">
                    <mxGeometry x="60" y="140" width="330" height="70" as="geometry"/>
                </mxCell>
                <mxCell id="18" value="$CONFIG: CFileIncludes" style="shape=swimlane;rotatable=0;align=center;verticalAlign=top;fontFamily=Lucida Console;startSize=30;fontSize=14;fontStyle=1;swimlaneFillColor=default;html=1;rounded=1;arcSize=15;absoluteArcSize=1;fillColor=#76608a;fontColor=#ffffff;strokeColor=#432D57;" parent="2" vertex="1" collapsed="1">
                    <mxGeometry x="40" y="440" width="280" height="70" as="geometry">
                        <mxRectangle x="30" y="170" width="290" height="90" as="alternateBounds"/>
                    </mxGeometry>
                </mxCell>
                <mxCell id="19" value="// User RenderConfig CFileIncludes text..." style="fontFamily=Lucida Console;align=left;verticalAlign=top;fillColor=none;gradientColor=none;strokeColor=none;rounded=0;spacingLeft=4;resizable=0;movable=0;deletable=0;rotatable=0;autosize=1;" parent="18" vertex="1" connectable="0">
                    <mxGeometry y="30" width="330" height="30" as="geometry"/>
                </mxCell>
                <mxCell id="20" value="&lt;b&gt;$NOTES&lt;/b&gt;&lt;br&gt;Anything you type in the &lt;b&gt;CFileIncludes &lt;/b&gt;vertex ends up in the generated .c file. It is combined with the C# &lt;b&gt;IRenderConfigC.CFileIncludes&lt;/b&gt; config." style="shape=rectangle;rounded=1;arcSize=15;absoluteArcSize=1;align=left;verticalAlign=top;whiteSpace=wrap;html=1;spacingLeft=4;strokeWidth=1;strokeColor=default;fillColor=#fff2cc;fontColor=#000000;gradientColor=#ffd966;" parent="18" vertex="1">
                    <mxGeometry x="50" y="130" width="330" height="70" as="geometry"/>
                </mxCell>
                <mxCell id="21" value="$CONFIG: VariableDeclarations" style="shape=swimlane;rotatable=0;align=center;verticalAlign=top;fontFamily=Lucida Console;startSize=30;fontSize=14;fontStyle=1;swimlaneFillColor=default;html=1;rounded=1;arcSize=15;absoluteArcSize=1;fillColor=#76608a;fontColor=#ffffff;strokeColor=#432D57;" parent="2" vertex="1" collapsed="1">
                    <mxGeometry x="40" y="560" width="280" height="70" as="geometry">
                        <mxRectangle x="30" y="170" width="290" height="90" as="alternateBounds"/>
                    </mxGeometry>
                </mxCell>
                <mxCell id="22" value="// This section is ignored if it only contains c style comments.&#10;// Add something like `bool my_flag;` to see a variables section get added to the state machine struct." style="fontFamily=Lucida Console;align=left;verticalAlign=top;fillColor=none;gradientColor=none;strokeColor=none;rounded=0;spacingLeft=4;resizable=0;movable=0;deletable=0;rotatable=0;autosize=1;" parent="21" vertex="1" connectable="0">
                    <mxGeometry y="30" width="770" height="40" as="geometry"/>
                </mxCell>
                <mxCell id="23" value="&lt;b&gt;$NOTES&lt;/b&gt;&lt;br&gt;Anything you type in the &lt;b&gt;VariableDeclarations&amp;nbsp;&lt;/b&gt;vertex ends up in the generated .h file variables section. It is combined with the C# &lt;b&gt;IRenderConfigC.VariableDeclarations&amp;nbsp;&lt;/b&gt;config." style="shape=rectangle;rounded=1;arcSize=15;absoluteArcSize=1;align=left;verticalAlign=top;whiteSpace=wrap;html=1;spacingLeft=4;strokeWidth=1;strokeColor=default;fillColor=#fff2cc;fontColor=#000000;gradientColor=#ffd966;" parent="21" vertex="1">
                    <mxGeometry x="60" y="140" width="330" height="70" as="geometry"/>
                </mxCell>
            </root>
        </mxGraphModel>
    </diagram>
</mxfile>